<?xml version="1.0" encoding="UTF-8" standalone="no"?>
<!-- Created with Inkscape (http://www.inkscape.org/) -->

<svg
   version="1.1"
   id="svg2"
   width="80.786667"
   height="26.546667"
   viewBox="0 0 80.786667 26.546667"
   sodipodi:docname="fiit-logo.eps"
   xmlns:inkscape="http://www.inkscape.org/namespaces/inkscape"
   xmlns:sodipodi="http://sodipodi.sourceforge.net/DTD/sodipodi-0.dtd"
   xmlns="http://www.w3.org/2000/svg"
   xmlns:svg="http://www.w3.org/2000/svg">
  <defs
     id="defs6" />
  <sodipodi:namedview
     id="namedview4"
     pagecolor="#ffffff"
     bordercolor="#000000"
     borderopacity="0.25"
     inkscape:showpageshadow="2"
     inkscape:pageopacity="0.0"
     inkscape:pagecheckerboard="0"
     inkscape:deskcolor="#d1d1d1" />
  <g
     id="g8"
     inkscape:groupmode="layer"
     inkscape:label="ink_ext_XXXXXX"
     transform="matrix(1.3333333,0,0,-1.3333333,0,26.546667)">
    <g
       id="g10"
       transform="scale(0.1)">
      <path
         d="m 15.3516,84.2188 c 8.4375,0 15.332,6.8554 15.332,15.332 0,8.4962 -6.8945,15.3042 -15.332,15.3042 C 6.875,114.855 0,108.047 0,99.5508 0,91.0742 6.875,84.2188 15.3516,84.2188"
         style="fill:#1594c8;fill-opacity:1;fill-rule:nonzero;stroke:none"
         id="path12" />
      <path
         d="m 15.3516,0 c 8.4375,0 15.332,6.84766 15.332,15.3125 0,8.457 -6.8945,15.3516 -15.332,15.3516 C 6.875,30.6641 0,23.7695 0,15.3125 0,6.84766 6.875,0 15.3516,0"
         style="fill:#1594c8;fill-opacity:1;fill-rule:nonzero;stroke:none"
         id="path14" />
      <path
         d="m 99.5703,84.2188 c 8.4767,0 15.3317,6.8554 15.3317,15.332 0,8.4962 -6.855,15.3042 -15.3317,15.3042 -8.4765,0 -15.332,-6.808 -15.332,-15.3042 0,-8.4766 6.8555,-15.332 15.332,-15.332"
         style="fill:#1594c8;fill-opacity:1;fill-rule:nonzero;stroke:none"
         id="path16" />
      <path
         d="m 99.5703,0 c 8.4767,0 15.3317,6.84766 15.3317,15.3125 0,8.457 -6.855,15.3516 -15.3317,15.3516 -8.4765,0 -15.332,-6.8946 -15.332,-15.3516 C 84.2383,6.84766 91.0938,0 99.5703,0"
         style="fill:#1594c8;fill-opacity:1;fill-rule:nonzero;stroke:none"
         id="path18" />
      <path
         d="m 183.789,84.2188 c 8.477,0 15.352,6.8554 15.352,15.332 0,8.4962 -6.875,15.3042 -15.352,15.3042 -8.476,0 -15.312,-6.808 -15.312,-15.3042 0,-8.4766 6.836,-15.332 15.312,-15.332"
         style="fill:#1594c8;fill-opacity:1;fill-rule:nonzero;stroke:none"
         id="path20" />
      <path
         d="m 15.3516,168.457 c 8.4375,0 15.332,6.856 15.332,15.332 0,8.477 -6.8945,15.313 -15.332,15.313 C 6.875,199.102 0,192.266 0,183.789 0,175.313 6.875,168.457 15.3516,168.457"
         style="fill:#1594c8;fill-opacity:1;fill-rule:nonzero;stroke:none"
         id="path22" />
      <path
         d="m 99.5703,168.457 c 8.4767,0 15.3317,6.856 15.3317,15.332 0,8.477 -6.855,15.313 -15.3317,15.313 -8.4765,0 -15.332,-6.836 -15.332,-15.313 0,-8.476 6.8555,-15.332 15.332,-15.332"
         style="fill:#1594c8;fill-opacity:1;fill-rule:nonzero;stroke:none"
         id="path24" />
      <path
         d="m 183.789,168.457 c 8.477,0 15.352,6.856 15.352,15.332 0,8.477 -6.875,15.313 -15.352,15.313 -8.476,0 -15.312,-6.836 -15.312,-15.313 0,-8.476 6.836,-15.332 15.312,-15.332"
         style="fill:#1594c8;fill-opacity:1;fill-rule:nonzero;stroke:none"
         id="path26" />
      <path
         d="m 183.789,0 c 8.477,0 15.352,6.84766 15.352,15.3125 0,8.457 -6.875,15.3516 -15.352,15.3516 -8.476,0 -15.312,-6.8946 -15.312,-15.3516 C 168.477,6.84766 175.313,0 183.789,0"
         style="fill:#1594c8;fill-opacity:1;fill-rule:nonzero;stroke:none"
         id="path28" />
      <path
         d="m 268.027,84.2188 c 8.457,0 15.332,6.8554 15.332,15.332 0,8.4962 -6.875,15.3042 -15.332,15.3042 -8.476,0 -15.312,-6.808 -15.312,-15.3042 0,-8.4766 6.836,-15.332 15.312,-15.332"
         style="fill:#1594c8;fill-opacity:1;fill-rule:nonzero;stroke:none"
         id="path30" />
      <path
         d="m 268.027,0 c 8.457,0 15.332,6.84766 15.332,15.3125 0,8.457 -6.875,15.3516 -15.332,15.3516 -8.476,0 -15.312,-6.8946 -15.312,-15.3516 C 252.715,6.84766 259.551,0 268.027,0"
         style="fill:#1594c8;fill-opacity:1;fill-rule:nonzero;stroke:none"
         id="path32" />
      <path
         d="m 268.027,168.457 c 8.457,0 15.332,6.856 15.332,15.352 0,8.425 -6.875,15.312 -15.332,15.312 -8.476,0 -15.312,-6.887 -15.312,-15.312 0,-8.496 6.836,-15.352 15.312,-15.352"
         style="fill:#1594c8;fill-opacity:1;fill-rule:nonzero;stroke:none"
         id="path34" />
      <path
         d="m 578.594,0.742188 c 0.801,0 1.152,0.332032 1.152,1.132812 v 70.2656 c 0,0.5742 0.215,0.9063 0.781,0.9063 h 19.727 c 0.781,0 1.133,0.4492 1.133,1.25 v 7.1289 c 0,0.8008 -0.352,1.1445 -1.133,1.1445 h -52.363 c -0.801,0 -1.133,-0.3437 -1.133,-1.1445 v -7.1289 c 0,-0.8008 0.332,-1.25 1.133,-1.25 H 567.5 c 0.566,0 0.898,-0.3321 0.898,-0.9063 V 1.875 c 0,-0.80078 0.352,-1.132812 1.016,-1.132812 z m -80,81.828112 c -0.801,0 -1.133,-0.3437 -1.133,-1.1445 V 1.875 c 0,-0.80078 0.332,-1.132812 1.133,-1.132812 h 9.179 c 0.684,0 1.016,0.332032 1.016,1.132812 v 79.5508 c 0,0.8008 -0.332,1.1445 -1.016,1.1445 z m -55.528,0 c -0.8,0 -1.132,-0.3437 -1.132,-1.1445 V 1.875 c 0,-0.80078 0.332,-1.132812 1.132,-1.132812 h 9.18 c 0.684,0 1.016,0.332032 1.016,1.132812 v 79.5508 c 0,0.8008 -0.332,1.1445 -1.016,1.1445 z M 371.094,72.1406 c 0,0.5742 0.351,0.9063 0.918,0.9063 h 31.718 c 0.801,0 1.25,0.4492 1.25,1.25 v 7.1289 c 0,0.8008 -0.449,1.1445 -1.25,1.1445 h -42.832 c -0.8,0 -1.132,-0.3437 -1.132,-1.1445 V 1.875 c 0,-0.80078 0.332,-1.132812 1.132,-1.132812 h 9.18 c 0.684,0 1.016,0.332032 1.016,1.132812 v 35.0195 h 25.39 c 0.801,0 1.25,0.3321 1.25,1.1328 v 7.2461 c 0,0.8008 -0.449,1.1329 -1.25,1.1329 h -25.39 v 25.7343"
         style="fill:#231f20;fill-opacity:1;fill-rule:nonzero;stroke:none"
         id="path36" />
      <path
         d="m 605.918,196.426 c 0,1.015 -0.449,1.476 -1.25,1.476 h -15.293 c -0.898,0 -1.367,-0.461 -1.367,-1.476 v -54.629 c 0,-8.047 -4.414,-12.012 -13.36,-12.012 -8.847,0 -13.261,3.965 -13.261,12.012 v 54.629 c 0,1.015 -0.449,1.476 -1.25,1.476 h -15.196 c -1.015,0 -1.464,-0.461 -1.464,-1.476 v -55.078 c 0,-15.977 8.945,-26.075 31.171,-26.075 22.325,0 31.27,10.098 31.27,26.075 z M 482.617,116.074 c 1.016,0 1.465,0.449 1.465,1.465 v 64.941 c 0,0.567 0.234,0.918 0.801,0.918 h 19.258 c 0.918,0 1.367,0.45 1.367,1.465 v 11.563 c 0,1.015 -0.449,1.476 -1.367,1.476 h -57.793 c -1.016,0 -1.465,-0.461 -1.465,-1.476 v -11.563 c 0,-1.015 0.449,-1.465 1.465,-1.465 h 18.925 c 0.567,0 0.918,-0.351 0.918,-0.918 v -64.941 c 0,-1.016 0.45,-1.465 1.231,-1.465 z m -125.469,3.965 c 7.715,-3.965 15.079,-4.766 24.493,-4.766 17.441,0 28.672,8.731 28.672,24.598 0,11.555 -5.45,18.586 -19.61,24.602 -12.129,4.863 -13.828,7.019 -13.828,11.554 0,4.649 3.184,7.821 10.43,7.821 5.332,0 9.863,-0.907 14.277,-2.715 1.016,-0.457 1.699,0 2.031,0.781 l 5.332,10.43 c 0.352,0.801 0.352,1.582 -0.683,1.933 -8.262,3.625 -13.028,4.414 -24.024,4.414 -16.875,0 -26.855,-9.863 -26.855,-23.125 0,-12.121 6.113,-19.597 20.293,-25.605 10.996,-4.871 13.262,-7.246 13.262,-11.895 0,-5 -4.083,-7.937 -10.879,-7.937 -7.832,0 -11.797,1.59 -16.563,3.738 -0.898,0.332 -1.582,0 -1.914,-0.801 l -5.098,-11.66 c -0.234,-0.461 0,-0.918 0.664,-1.367"
         style="fill:#231f20;fill-opacity:1;fill-rule:nonzero;stroke:none"
         id="path38" />
    </g>
  </g>
</svg>
